<svg xmlns="http://www.w3.org/2000/svg" viewBox="0 0 52.79 8.36">
  <path class="fill" d="M5.58,1.09l-1.05,1.03c-.31-.33-.75-.54-1.32-.54-.99,0-1.7.74-1.7,1.82,0,1.19.78,1.85,1.7,1.85s1.39-.39,1.56-1.12h-1.5v-1.14h2.96c.02.16.03.31.03.46,0,1.98-1.41,3.14-3,3.14-1.84,0-3.27-1.27-3.27-3.2S1.36.2,3.29.2c.98,0,1.76.34,2.3.9Z"/>
  <path class="fill" d="M9.61,2.11l-.13,1.38c-.19-.06-.45-.11-.69-.11-.49,0-.79.24-.79.78v2.34h-1.38V2.16h1.32v.5c.25-.42.65-.62,1.18-.62.2,0,.38.04.49.07Z"/>
  <path class="fill" d="M11.31.83c0,.46-.36.82-.82.82s-.82-.36-.82-.82.36-.83.82-.83.82.36.82.83ZM11.18,6.49h-1.38V2.16h1.38v4.33Z"/>
  <path class="fill" d="M16.29,4.32c0,1.28-.86,2.28-2.02,2.28-.56,0-.94-.22-1.2-.52v2.17h-1.38V2.16h1.33v.47c.26-.34.65-.59,1.24-.59,1.16,0,2.02,1.01,2.02,2.28ZM13.02,4.32c0,.57.38.99.92.99s.93-.43.93-.99-.37-.99-.93-.99-.92.42-.92.99Z"/>
  <path class="fill" d="M22.6,4.32c0,1.31-1,2.28-2.35,2.28s-2.35-.97-2.35-2.28,1-2.28,2.35-2.28,2.35.97,2.35,2.28ZM19.31,4.32c0,.58.4.99.93.99s.94-.41.94-.99-.4-.99-.94-.99-.93.41-.93.99Z"/>
  <path class="fill" d="M27.48,4.32c0,1.28-.86,2.28-2.02,2.28-.56,0-.94-.22-1.2-.52v2.17h-1.38V2.16h1.33v.47c.26-.34.65-.59,1.24-.59,1.16,0,2.02,1.01,2.02,2.28ZM24.22,4.32c0,.57.38.99.92.99s.93-.43.93-.99-.37-.99-.93-.99-.92.42-.92.99Z"/>
  <path class="fill" d="M30.71,6.77c0,1.01-.56,1.58-1.42,1.58-.2,0-.5-.04-.66-.11l.13-1.22c.08.03.17.04.28.04.17,0,.29-.1.29-.39V2.16h1.38v4.61ZM30.84.83c0,.46-.36.82-.82.82s-.82-.36-.82-.82.36-.83.82-.83.82.36.82.83Z"/>
  <path class="fill" d="M35.39,4.32c0,.14,0,.33-.03.43h-2.93c.11.47.45.69.93.69.32,0,.67-.13.94-.38l.89.83c-.45.45-1.11.71-1.9.71-1.36,0-2.28-.9-2.28-2.25s.9-2.31,2.22-2.31,2.16.93,2.16,2.28ZM32.43,3.88h1.57c-.11-.43-.38-.66-.78-.66-.43,0-.69.23-.79.66Z"/>
  <path class="fill" d="M40.21,2.61v-.45h1.34v3.91c0,1.42-.93,2.27-2.35,2.27-.72,0-1.46-.19-1.98-.55l.49-1.1c.42.3.88.44,1.39.44.56,0,1.09-.31,1.09-1v-.27c-.26.33-.64.55-1.19.55-1.16,0-2.01-.96-2.01-2.18s.85-2.19,2.01-2.19c.57,0,.95.23,1.21.57ZM38.42,4.23c0,.52.37.93.91.93s.88-.39.88-.93-.36-.93-.88-.93-.91.4-.91.93Z"/>
  <path class="fill" d="M46.23,4.32c0,.14,0,.33-.03.43h-2.93c.12.47.45.69.93.69.32,0,.67-.13.94-.38l.89.83c-.45.45-1.11.71-1.91.71-1.36,0-2.28-.9-2.28-2.25s.9-2.31,2.22-2.31,2.16.93,2.17,2.28ZM43.27,3.88h1.57c-.11-.43-.38-.66-.78-.66-.43,0-.69.23-.79.66Z"/>
  <path class="fill" d="M47.91,6.49h-1.38V.14h1.38v6.35Z"/>
  <path class="fill" d="M51.41,2.58V.14h1.38v6.35h-1.33v-.47c-.26.34-.66.58-1.24.58-1.16,0-2.01-1.01-2.01-2.28s.86-2.28,2.02-2.28c.55,0,.93.22,1.19.53ZM49.62,4.32c0,.56.37.99.92.99s.93-.42.93-.99-.38-.99-.93-.99-.92.43-.92.99Z"/>
</svg>